<svg version="1.1" id="Layer_2_copy" xmlns="http://www.w3.org/2000/svg" x="0" y="0" viewBox="0 0 800 300" xml:space="preserve"><style>.st0{fill:none;stroke:#fff;stroke-miterlimit:10}.st1{fill:#fff}.st5{fill:#42affa}</style><path class="st0" d="M33.5 172h740"/><path class="st1" d="M770.7 175.7l1.6-3.7-1.6-3.7 8.8 3.7z"/><path class="st0" d="M281.9 230V102"/><g stroke="#fff" stroke-miterlimit="10"><path fill="#bbcdd9" d="M426.5 165.1h157v6.4h-157z"/><path fill="#42affa" d="M426.5 138h157v27.1h-157z"/></g><path fill="#91c2e4" d="M229.5 102H281v69h-51.5z"/><path d="M436.5 155.1l4.2-10.8h1.5l4.4 10.8H445l-1.3-3.3h-4.5l-1.2 3.3h-1.5zm3.1-4.4h3.7l-1.1-3c-.3-.9-.6-1.7-.8-2.2-.1.7-.3 1.4-.6 2.1l-1.2 3.1zM447.6 158.1v-10.9h1.2v1c.3-.4.6-.7 1-.9.4-.2.8-.3 1.3-.3.7 0 1.3.2 1.8.5s.9.8 1.2 1.5c.3.6.4 1.3.4 2.1s-.1 1.5-.4 2.2-.7 1.1-1.3 1.5c-.5.3-1.1.5-1.7.5-.4 0-.8-.1-1.2-.3-.4-.2-.6-.4-.9-.7v3.8h-1.4zm1.2-6.8c0 1 .2 1.8.6 2.2s.9.7 1.5.7 1.1-.3 1.5-.8.6-1.3.6-2.3c0-1-.2-1.7-.6-2.2-.4-.5-.9-.7-1.5-.7s-1.1.3-1.5.8c-.4.5-.6 1.3-.6 2.3zM456 158.1v-10.9h1.2v1c.3-.4.6-.7 1-.9.4-.2.8-.3 1.3-.3.7 0 1.3.2 1.8.5s.9.8 1.2 1.5c.3.6.4 1.3.4 2.1s-.1 1.5-.4 2.2-.7 1.1-1.3 1.5c-.5.3-1.1.5-1.7.5-.4 0-.8-.1-1.2-.3-.4-.2-.6-.4-.9-.7v3.8H456zm1.2-6.8c0 1 .2 1.8.6 2.2s.9.7 1.5.7 1.1-.3 1.5-.8.6-1.3.6-2.3c0-1-.2-1.7-.6-2.2-.4-.5-.9-.7-1.5-.7s-1.1.3-1.5.8c-.4.5-.6 1.3-.6 2.3zM463.9 151.9v-1.3h4.1v1.3h-4.1zM468.9 152.8l1.3-.2c.1.5.3.9.6 1.2.3.3.8.4 1.4.4.6 0 1.1-.1 1.4-.4.3-.2.4-.5.4-.9 0-.3-.1-.5-.4-.7-.2-.1-.6-.3-1.4-.5-1-.2-1.7-.5-2-.6s-.7-.4-.9-.7c-.2-.3-.3-.7-.3-1.1 0-.3.1-.7.2-1s.4-.5.7-.7c.2-.2.5-.3.8-.4.4-.1.7-.2 1.1-.2.6 0 1.2.1 1.6.3.5.2.8.4 1 .7s.4.7.5 1.2l-1.3.2c-.1-.4-.2-.7-.5-.9-.3-.2-.7-.3-1.2-.3-.6 0-1 .1-1.3.3-.3.2-.4.4-.4.7 0 .2.1.3.2.5.1.1.3.3.5.4.1 0 .5.2 1.2.3.9.3 1.6.5 2 .6.4.2.7.4.9.7s.3.7.3 1.1c0 .4-.1.9-.4 1.3-.3.4-.6.7-1.1.9-.5.2-1 .3-1.7.3-1 0-1.8-.2-2.3-.6s-.7-1.1-.9-1.9zM477 158.1v-10.9h1.2v1c.3-.4.6-.7 1-.9.4-.2.8-.3 1.3-.3.7 0 1.3.2 1.8.5s.9.8 1.2 1.5c.3.6.4 1.3.4 2.1s-.1 1.5-.4 2.2-.7 1.1-1.3 1.5c-.5.3-1.1.5-1.7.5-.4 0-.8-.1-1.2-.3-.4-.2-.6-.4-.9-.7v3.8H477zm1.2-6.8c0 1 .2 1.8.6 2.2s.9.7 1.5.7 1.1-.3 1.5-.8.6-1.3.6-2.3c0-1-.2-1.7-.6-2.2-.4-.5-.9-.7-1.5-.7s-1.1.3-1.5.8c-.4.5-.6 1.3-.6 2.3zM490.8 152.6l1.4.2c-.2.8-.6 1.4-1.2 1.9-.6.4-1.3.7-2.2.7-1.1 0-2.1-.4-2.7-1.1s-1-1.7-1-3 .3-2.3 1-3.1c.7-.7 1.6-1.1 2.6-1.1s1.9.4 2.6 1.1 1 1.7 1 3v.4h-5.9c0 .9.3 1.5.7 2s1 .7 1.6.7c.5 0 .9-.1 1.2-.4.4-.3.7-.7.9-1.3zm-4.4-2.1h4.4c-.1-.7-.2-1.2-.5-1.5-.4-.5-1-.8-1.6-.8-.6 0-1.1.2-1.5.6-.5.4-.7 1-.8 1.7zM499 152.3l1.3.2c-.1.9-.5 1.6-1.1 2.1s-1.3.8-2.2.8c-1.1 0-1.9-.4-2.6-1.1-.7-.7-1-1.7-1-3 0-.8.1-1.6.4-2.2.3-.6.7-1.1 1.3-1.4.6-.3 1.2-.5 1.9-.5.9 0 1.5.2 2.1.6s.9 1 1 1.8l-1.3.2c-.1-.5-.3-.9-.7-1.2-.3-.3-.7-.4-1.1-.4-.7 0-1.2.2-1.6.7-.4.5-.6 1.2-.6 2.3 0 1.1.2 1.8.6 2.3.4.5.9.7 1.6.7.5 0 1-.2 1.3-.5.4-.3.6-.8.7-1.4zM501.4 145.8v-1.5h1.3v1.5h-1.3zm0 9.3v-7.8h1.3v7.8h-1.3zM505.1 155.1v-6.8h-1.2v-1h1.2v-.8c0-.5 0-.9.1-1.2.1-.3.4-.6.7-.8.3-.2.8-.3 1.4-.3.4 0 .8 0 1.2.1l-.2 1.2c-.3 0-.5-.1-.8-.1-.4 0-.7.1-.9.3-.2.2-.3.5-.3 1v.7h1.5v1h-1.5v6.8h-1.2zM509 145.8v-1.5h1.3v1.5H509zm0 9.3v-7.8h1.3v7.8H509zM517.5 152.3l1.3.2c-.1.9-.5 1.6-1.1 2.1s-1.3.8-2.2.8c-1.1 0-1.9-.4-2.6-1.1-.7-.7-1-1.7-1-3 0-.8.1-1.6.4-2.2.3-.6.7-1.1 1.3-1.4.6-.3 1.2-.5 1.9-.5.9 0 1.5.2 2.1.6s.9 1 1 1.8l-1.3.2c-.1-.5-.3-.9-.7-1.2-.3-.3-.7-.4-1.1-.4-.7 0-1.2.2-1.6.7-.4.5-.6 1.2-.6 2.3 0 1.1.2 1.8.6 2.3.4.5.9.7 1.6.7.5 0 1-.2 1.3-.5.3-.3.6-.8.7-1.4zM529.2 152.3l1.3.2c-.1.9-.5 1.6-1.1 2.1s-1.3.8-2.2.8c-1.1 0-1.9-.4-2.6-1.1-.7-.7-1-1.7-1-3 0-.8.1-1.6.4-2.2.3-.6.7-1.1 1.3-1.4.6-.3 1.2-.5 1.9-.5.9 0 1.5.2 2.1.6s.9 1 1 1.8l-1.3.2c-.1-.5-.3-.9-.7-1.2-.3-.3-.7-.4-1.1-.4-.7 0-1.2.2-1.6.7-.4.5-.6 1.2-.6 2.3 0 1.1.2 1.8.6 2.3.4.5.9.7 1.6.7.5 0 1-.2 1.3-.5.4-.3.6-.8.7-1.4zM531.2 151.2c0-1.5.4-2.5 1.2-3.2.7-.6 1.5-.9 2.5-.9 1.1 0 2 .4 2.6 1.1.7.7 1 1.7 1 2.9 0 1-.2 1.8-.5 2.4-.3.6-.7 1-1.3 1.3-.6.3-1.2.5-1.9.5-1.1 0-2-.4-2.7-1.1-.6-.6-.9-1.7-.9-3zm1.3 0c0 1 .2 1.8.7 2.3s1 .8 1.7.8 1.2-.3 1.6-.8c.4-.5.7-1.3.7-2.3 0-1-.2-1.7-.7-2.2-.4-.5-1-.8-1.6-.8-.7 0-1.2.2-1.7.7-.4.6-.7 1.3-.7 2.3zM545.2 155.1v-1c-.5.8-1.2 1.2-2.2 1.2-.6 0-1.2-.2-1.7-.5s-.9-.8-1.2-1.4-.4-1.3-.4-2.1.1-1.5.4-2.1c.3-.6.7-1.1 1.2-1.5.5-.3 1.1-.5 1.8-.5.5 0 .9.1 1.3.3.4.2.7.5.9.8v-3.9h1.3v10.8h-1.4zm-4.2-3.9c0 1 .2 1.8.6 2.3.4.5.9.7 1.5.7s1.1-.2 1.5-.7.6-1.2.6-2.2c0-1.1-.2-1.9-.6-2.4-.4-.5-.9-.8-1.5-.8s-1.1.2-1.5.7c-.4.6-.6 1.4-.6 2.4zM553.9 152.6l1.4.2c-.2.8-.6 1.4-1.2 1.9-.6.4-1.3.7-2.2.7-1.1 0-2.1-.4-2.7-1.1s-1-1.7-1-3 .3-2.3 1-3.1c.7-.7 1.6-1.1 2.6-1.1s1.9.4 2.6 1.1 1 1.7 1 3v.4h-5.9c0 .9.3 1.5.7 2s1 .7 1.6.7c.5 0 .9-.1 1.2-.4.4-.3.7-.7.9-1.3zm-4.4-2.1h4.4c-.1-.7-.2-1.2-.5-1.5-.4-.5-1-.8-1.6-.8-.6 0-1.1.2-1.5.6-.5.4-.8 1-.8 1.7z"/><g><path class="st1" d="M426.2 53.9c0-1.8.5-3.2 1.4-4.2 1-1 2.2-1.5 3.7-1.5 1 0 1.9.2 2.7.7.8.5 1.4 1.1 1.8 2 .4.9.6 1.8.6 2.9 0 1.1-.2 2.1-.7 2.9-.4.9-1.1 1.5-1.9 2-.8.4-1.7.7-2.6.7-1 0-1.9-.2-2.7-.7-.8-.5-1.4-1.2-1.8-2-.3-1-.5-1.9-.5-2.8zm1.5 0c0 1.3.4 2.3 1.1 3.1.7.8 1.6 1.1 2.6 1.1 1.1 0 2-.4 2.7-1.1.7-.8 1-1.8 1-3.2 0-.9-.1-1.7-.4-2.3s-.7-1.2-1.3-1.5c-.6-.4-1.2-.5-1.9-.5-1 0-1.9.3-2.6 1-.8.6-1.2 1.8-1.2 3.4zM443.4 59.1V58c-.6.9-1.4 1.3-2.5 1.3-.5 0-.9-.1-1.3-.3-.4-.2-.7-.4-.9-.7s-.3-.6-.4-1c-.1-.3-.1-.7-.1-1.2v-4.9h1.3v4.4c0 .7 0 1.2.1 1.4.1.3.3.6.5.8.3.2.6.3 1 .3s.8-.1 1.1-.3.6-.5.7-.8c.1-.4.2-.9.2-1.5v-4.2h1.3v7.8h-1zM449.6 58l.2 1.2c-.4.1-.7.1-1 .1-.5 0-.9-.1-1.1-.2-.3-.2-.5-.4-.6-.6s-.2-.8-.2-1.6v-4.5h-1v-1h1v-1.9l1.3-.8v2.7h1.3v1h-1.3V57c0 .4 0 .6.1.7s.1.2.2.3c.1.1.3.1.5.1.1-.1.3-.1.6-.1zM450.9 62.1V51.3h1.2v1c.3-.4.6-.7 1-.9.4-.2.8-.3 1.3-.3.7 0 1.3.2 1.8.5s.9.8 1.2 1.5c.3.6.4 1.3.4 2.1s-.1 1.5-.4 2.2-.7 1.1-1.3 1.5c-.5.3-1.1.5-1.7.5-.4 0-.8-.1-1.2-.3-.4-.2-.6-.4-.9-.7v3.8h-1.4zm1.2-6.8c0 1 .2 1.8.6 2.2s.9.7 1.5.7 1.1-.3 1.5-.8.6-1.3.6-2.3c0-1-.2-1.7-.6-2.2-.4-.5-.9-.7-1.5-.7s-1.1.3-1.5.8c-.4.5-.6 1.3-.6 2.3zM464.4 59.1V58c-.6.9-1.4 1.3-2.5 1.3-.5 0-.9-.1-1.3-.3-.4-.2-.7-.4-.9-.7s-.3-.6-.4-1c-.1-.3-.1-.7-.1-1.2v-4.9h1.3v4.4c0 .7 0 1.2.1 1.4.1.3.3.6.5.8.3.2.6.3 1 .3s.8-.1 1.1-.3.6-.5.7-.8c.1-.4.2-.9.2-1.5v-4.2h1.3v7.8h-1zM470.6 58l.2 1.2c-.4.1-.7.1-1 .1-.5 0-.9-.1-1.1-.2-.3-.2-.5-.4-.6-.6s-.2-.8-.2-1.6v-4.5h-1v-1h1v-1.9l1.3-.8v2.7h1.3v1h-1.3V57c0 .4 0 .6.1.7s.1.2.2.3c.1.1.3.1.5.1.2-.1.4-.1.6-.1z"/></g><g><path class="st1" d="M276.4 55.3l1.4.4c-.3 1.2-.8 2.1-1.6 2.7-.8.6-1.7.9-2.9.9s-2.1-.2-2.8-.7c-.7-.5-1.3-1.2-1.7-2.1s-.6-1.9-.6-2.9c0-1.1.2-2.1.6-3 .4-.8 1-1.5 1.8-1.9s1.7-.7 2.6-.7c1.1 0 2 .3 2.7.8.7.6 1.3 1.3 1.5 2.3l-1.4.3c-.3-.8-.6-1.4-1.1-1.7-.5-.4-1.1-.5-1.8-.5-.8 0-1.5.2-2.1.6-.6.4-1 .9-1.2 1.6s-.3 1.4-.3 2.1c0 .9.1 1.7.4 2.4.3.7.7 1.2 1.3 1.5s1.2.5 1.8.5c.8 0 1.5-.2 2-.7s1.2-.9 1.4-1.9zM278.9 55.2c0-1.5.4-2.5 1.2-3.2.7-.6 1.5-.9 2.5-.9 1.1 0 2 .4 2.6 1.1.7.7 1 1.7 1 2.9 0 1-.2 1.8-.5 2.4-.3.6-.7 1-1.3 1.3-.6.3-1.2.5-1.9.5-1.1 0-2-.4-2.7-1.1-.5-.6-.9-1.7-.9-3zm1.4 0c0 1 .2 1.8.7 2.3s1 .8 1.7.8 1.2-.3 1.6-.8c.4-.5.7-1.3.7-2.3 0-1-.2-1.7-.7-2.2-.4-.5-1-.8-1.6-.8-.7 0-1.2.2-1.7.7-.5.6-.7 1.3-.7 2.3zM287.8 59.1v-7.8h1.2v1.1c.2-.4.6-.7 1-.9.4-.2.9-.4 1.4-.4.6 0 1.1.1 1.4.4.4.2.6.6.8 1 .6-.9 1.4-1.4 2.4-1.4.8 0 1.4.2 1.8.6.4.4.6 1.1.6 2v5.4h-1.3v-4.9c0-.5 0-.9-.1-1.1-.1-.2-.2-.4-.5-.6-.2-.1-.5-.2-.8-.2-.6 0-1 .2-1.4.6-.4.4-.5 1-.5 1.8v4.6h-1.3V54c0-.6-.1-1-.3-1.3-.2-.3-.6-.4-1.1-.4-.4 0-.7.1-1 .3-.3.2-.5.5-.7.9-.1.4-.2.9-.2 1.6v4.1h-1.4zM300.4 62.1V51.3h1.2v1c.3-.4.6-.7 1-.9.4-.2.8-.3 1.3-.3.7 0 1.3.2 1.8.5s.9.8 1.2 1.5c.3.6.4 1.3.4 2.1s-.1 1.5-.4 2.2-.7 1.1-1.3 1.5c-.5.3-1.1.5-1.7.5-.4 0-.8-.1-1.2-.3-.4-.2-.6-.4-.9-.7v3.8h-1.4zm1.2-6.8c0 1 .2 1.8.6 2.2s.9.7 1.5.7 1.1-.3 1.5-.8.6-1.3.6-2.3c0-1-.2-1.7-.6-2.2-.4-.5-.9-.7-1.5-.7s-1.1.3-1.5.8c-.3.5-.6 1.3-.6 2.3zM308.9 49.8v-1.5h1.3v1.5h-1.3zm0 9.3v-7.8h1.3v7.8h-1.3zM312.2 59.1V48.3h1.3v10.8h-1.3zM320.9 56.6l1.4.2c-.2.8-.6 1.4-1.2 1.9-.6.4-1.3.7-2.2.7-1.1 0-2.1-.4-2.7-1.1s-1-1.7-1-3 .3-2.3 1-3.1c.7-.7 1.6-1.1 2.6-1.1s1.9.4 2.6 1.1 1 1.7 1 3v.4h-5.9c0 .9.3 1.5.7 2s1 .7 1.6.7c.5 0 .9-.1 1.2-.4.5-.3.7-.7.9-1.3zm-4.3-2.1h4.4c-.1-.7-.2-1.2-.5-1.5-.4-.5-1-.8-1.6-.8-.6 0-1.1.2-1.5.6-.5.4-.8 1-.8 1.7z"/></g><g><path class="st5" d="M299.6 136.1v-10.8h3.5c1.3 0 2.2.1 2.6.2.6.2 1.1.5 1.6 1.1.4.5.6 1.2.6 2.1 0 .7-.1 1.2-.4 1.7s-.5.8-.9 1.1c-.4.3-.8.4-1.1.5-.5.1-1.3.2-2.3.2h-1.4v4.1h-2.2zm2.2-9v3.1h1.2c.9 0 1.4-.1 1.7-.2.3-.1.5-.3.7-.5s.2-.5.2-.8c0-.4-.1-.7-.3-1s-.5-.4-.9-.5c-.3 0-.8-.1-1.6-.1h-1zM311.7 136.1h-2.1v-7.8h1.9v1.1c.3-.5.6-.9.9-1 .3-.2.6-.3.9-.3.5 0 .9.1 1.4.4l-.6 1.8c-.3-.2-.7-.3-1-.3-.3 0-.5.1-.7.2-.2.2-.4.4-.5.9-.1.4-.2 1.3-.2 2.6v2.4zM315.1 132.1c0-.7.2-1.4.5-2s.8-1.1 1.4-1.5 1.3-.5 2.1-.5c1.2 0 2.2.4 2.9 1.2s1.1 1.7 1.1 2.9-.4 2.2-1.1 3c-.8.8-1.7 1.2-2.9 1.2-.7 0-1.4-.2-2.1-.5-.7-.3-1.1-.8-1.5-1.4s-.4-1.5-.4-2.4zm2.1.1c0 .8.2 1.4.6 1.8.4.4.8.6 1.4.6.5 0 1-.2 1.4-.6.4-.4.6-1 .6-1.8s-.2-1.4-.6-1.8c-.4-.4-.8-.6-1.4-.6-.5 0-1 .2-1.4.6-.4.4-.6 1-.6 1.8zM332 136.1h-1.9V135c-.3.4-.7.8-1.1 1-.4.2-.9.3-1.3.3-.9 0-1.7-.4-2.3-1.1-.6-.7-1-1.7-1-3s.3-2.3.9-3c.6-.7 1.4-1 2.4-1 .9 0 1.6.4 2.3 1.1v-3.9h2.1v10.7zm-5.5-4.1c0 .8.1 1.4.3 1.8.3.5.8.8 1.4.8.5 0 .9-.2 1.2-.6s.5-1 .5-1.8c0-.9-.2-1.6-.5-1.9-.3-.4-.7-.6-1.2-.6s-.9.2-1.2.6-.5 1-.5 1.7zM339.2 136.1V135c-.3.4-.7.7-1.1 1s-1 .4-1.5.4-1-.1-1.4-.3c-.4-.2-.7-.6-.9-1-.2-.4-.3-1-.3-1.7v-5h2.1v3.6c0 1.1 0 1.8.1 2 .1.2.2.4.4.6.2.1.5.2.8.2.4 0 .7-.1 1-.3.3-.2.5-.4.6-.7s.2-1 .2-2.1v-3.3h2.1v7.8h-2.1zM350.1 130.6l-2 .4c-.1-.4-.2-.7-.5-.9-.2-.2-.6-.3-.9-.3-.5 0-.9.2-1.2.5-.3.4-.5 1-.5 1.8 0 .9.2 1.6.5 2 .3.4.7.6 1.3.6.4 0 .7-.1 1-.3.3-.2.4-.6.5-1.2l2 .3c-.2.9-.6 1.6-1.2 2.1s-1.4.7-2.4.7c-1.1 0-2.1-.4-2.7-1.1-.7-.7-1-1.7-1-3s.3-2.3 1-3 1.6-1.1 2.8-1.1c1 0 1.7.2 2.3.6.4.4.8 1.1 1 1.9zM355.3 128.3v1.7h-1.4V134.3c0 .1.1.2.2.3.1.1.2.1.4.1s.5-.1.8-.2l.2 1.6c-.5.2-1 .3-1.6.3-.4 0-.7-.1-1-.2-.3-.1-.5-.3-.7-.5-.1-.2-.2-.5-.3-.8 0-.2-.1-.7-.1-1.5V130h-1v-1.7h1v-1.6l2.1-1.2v2.8h1.4zM356.7 127.2v-1.9h2.1v1.9h-2.1zm0 8.9v-7.8h2.1v7.8h-2.1zM360.5 132.1c0-.7.2-1.4.5-2s.8-1.1 1.4-1.5 1.3-.5 2.1-.5c1.2 0 2.2.4 2.9 1.2s1.1 1.7 1.1 2.9-.4 2.2-1.1 3c-.8.8-1.7 1.2-2.9 1.2-.7 0-1.4-.2-2.1-.5-.7-.3-1.1-.8-1.5-1.4s-.4-1.5-.4-2.4zm2.1.1c0 .8.2 1.4.6 1.8.4.4.8.6 1.4.6.5 0 1-.2 1.4-.6.4-.4.6-1 .6-1.8s-.2-1.4-.6-1.8c-.4-.4-.8-.6-1.4-.6-.5 0-1 .2-1.4.6-.4.4-.6 1-.6 1.8zM377.3 136.1h-2.1v-4c0-.8 0-1.4-.1-1.6-.1-.2-.2-.4-.4-.6s-.4-.2-.7-.2c-.4 0-.7.1-1 .3-.3.2-.5.5-.6.8s-.2.9-.2 1.8v3.6h-2.1v-7.8h1.9v1.2c.7-.9 1.5-1.3 2.6-1.3.5 0 .9.1 1.3.2.4.2.7.4.9.6s.3.5.4.9.1.8.1 1.4v4.7z"/></g><g><path class="st5" d="M39.6 125.3h4c.9 0 1.6.1 2.1.2.6.2 1.2.5 1.6 1 .5.5.8 1.1 1 1.8.2.7.4 1.5.4 2.6 0 .9-.1 1.7-.3 2.3-.3.8-.7 1.4-1.2 1.9-.4.4-.9.7-1.5.9-.5.2-1.1.2-1.9.2h-4.1v-10.9zm2.2 1.8v7.2h1.6c.6 0 1.1 0 1.3-.1.4-.1.6-.2.9-.5.2-.2.4-.6.6-1 .1-.5.2-1.1.2-2s-.1-1.5-.2-1.9c-.1-.4-.4-.8-.6-1-.3-.3-.6-.4-1-.5-.3-.1-.9-.1-1.8-.1h-1zM55.1 133.6l2.1.3c-.3.8-.7 1.3-1.3 1.7-.6.4-1.3.6-2.2.6-1.4 0-2.4-.4-3-1.3-.5-.7-.8-1.6-.8-2.7 0-1.3.3-2.3 1-3.1s1.5-1.1 2.6-1.1c1.2 0 2.1.4 2.8 1.2s1 2 1 3.5H52c0 .6.2 1.1.5 1.4.3.3.7.5 1.2.5.3 0 .6-.1.8-.3.3 0 .4-.3.6-.7zm.1-2.1c0-.6-.2-1.1-.5-1.4-.3-.3-.7-.5-1.1-.5-.5 0-.8.2-1.1.5-.3.3-.4.8-.4 1.3h3.1zM61.1 136.1l-3.2-7.8h2.2l1.5 4 .4 1.3c.1-.3.2-.6.2-.7.1-.2.1-.4.2-.7l1.5-4H66l-3.1 7.8h-1.8zM71.9 133.6l2.1.4c-.3.8-.7 1.3-1.3 1.7-.6.4-1.3.6-2.2.6-1.4 0-2.4-.4-3-1.3-.5-.7-.8-1.6-.8-2.7 0-1.3.3-2.3 1-3.1s1.5-1.1 2.6-1.1c1.2 0 2.1.4 2.8 1.2s1 2 1 3.5h-5.2c0 .6.2 1.1.5 1.4.3.3.7.5 1.2.5.3 0 .6-.1.8-.3.2-.1.4-.4.5-.8zm.1-2.1c0-.6-.2-1.1-.5-1.4-.3-.3-.7-.5-1.1-.5-.5 0-.8.2-1.1.5-.3.3-.4.8-.4 1.3H72zM75.8 136.1v-10.8h2.1v10.8h-2.1zM79.5 132.1c0-.7.2-1.4.5-2s.8-1.1 1.4-1.5 1.3-.5 2.1-.5c1.2 0 2.2.4 2.9 1.2s1.1 1.7 1.1 2.9-.4 2.2-1.1 3c-.8.8-1.7 1.2-2.9 1.2-.7 0-1.4-.2-2.1-.5-.7-.3-1.1-.8-1.5-1.4s-.4-1.5-.4-2.4zm2.1.1c0 .8.2 1.4.6 1.8.4.4.8.6 1.4.6.5 0 1-.2 1.4-.6.4-.4.6-1 .6-1.8s-.2-1.4-.6-1.8c-.4-.4-.8-.6-1.4-.6-.5 0-1 .2-1.4.6-.4.4-.6 1-.6 1.8zM89.1 128.3H91v1.2c.3-.4.6-.7 1-1 .4-.2.9-.4 1.4-.4.9 0 1.7.4 2.3 1.1.6.7 1 1.7 1 3s-.3 2.3-1 3.1c-.6.7-1.4 1.1-2.3 1.1-.4 0-.8-.1-1.2-.3-.4-.2-.7-.5-1.1-.9v4H89v-10.9zm2.1 3.8c0 .9.2 1.5.5 2s.8.6 1.3.6.9-.2 1.2-.6.5-1 .5-1.9c0-.8-.2-1.4-.5-1.8-.3-.4-.7-.6-1.2-.6s-.9.2-1.3.6-.5.9-.5 1.7zM98.3 128.3h1.9v1.1c.7-.8 1.5-1.2 2.4-1.2.5 0 .9.1 1.3.3.4.2.7.5.9.9.3-.4.7-.7 1.1-.9.4-.2.8-.3 1.3-.3.6 0 1.1.1 1.5.4.4.2.7.6.9 1 .1.3.2.9.2 1.6v5h-2.1v-4.5c0-.8-.1-1.3-.2-1.5-.2-.3-.5-.4-.9-.4-.3 0-.6.1-.8.3-.3.2-.4.4-.6.8-.1.3-.2.9-.2 1.6v3.8h-2V132c0-.8 0-1.3-.1-1.5s-.2-.4-.3-.5-.4-.2-.6-.2c-.3 0-.6.1-.9.3-.3.2-.4.4-.5.7-.1.3-.2.9-.2 1.6v3.8h-2.1v-7.9zM116.4 133.6l2.1.3c-.3.8-.7 1.3-1.3 1.7-.6.4-1.3.6-2.2.6-1.4 0-2.4-.4-3-1.3-.5-.7-.8-1.6-.8-2.7 0-1.3.3-2.3 1-3.1s1.5-1.1 2.6-1.1c1.2 0 2.1.4 2.8 1.2s1 2 1 3.5h-5.2c0 .6.2 1.1.5 1.4.3.3.7.5 1.2.5.3 0 .6-.1.8-.3.3 0 .4-.3.5-.7zm.2-2.1c0-.6-.2-1.1-.5-1.4-.3-.3-.7-.5-1.1-.5-.5 0-.8.2-1.1.5-.3.3-.4.8-.4 1.3h3.1zM127.4 136.1h-2.1v-4c0-.8 0-1.4-.1-1.6-.1-.2-.2-.4-.4-.6s-.4-.2-.7-.2c-.4 0-.7.1-1 .3-.3.2-.5.5-.6.8s-.2.9-.2 1.8v3.6h-2.1v-7.8h1.9v1.2c.7-.9 1.5-1.3 2.6-1.3.5 0 .9.1 1.3.2.4.2.7.4.9.6s.3.5.4.9.1.8.1 1.4v4.7zM133.1 128.3v1.7h-1.4V134.3c0 .1.1.2.2.3.1.1.2.1.4.1s.5-.1.8-.2l.2 1.6c-.5.2-1 .3-1.6.3-.4 0-.7-.1-1-.2-.3-.1-.5-.3-.7-.5-.1-.2-.2-.5-.3-.8 0-.2-.1-.7-.1-1.5V130h-1v-1.7h1v-1.6l2.1-1.2v2.8h1.4z"/></g></svg>